<svg xmlns="http://www.w3.org/2000/svg" viewBox="0 0 52.62 60.76"><defs><style>.cls-1{fill:#58595b;}.cls-2{fill:#93765d;}.cls-3{fill:#acb2b2;}</style></defs><title>Logo 2</title><g id="Layer_2" data-name="Layer 2"><g id="Layer_1-2" data-name="Layer 1"><path class="cls-1" d="M5.75,17.95a12.26,12.26,0,0,1,1.85-3,12.42,12.42,0,0,1,2.52-2.24,16.8,16.8,0,0,1,2.53-1.42c.85-.38,2.05-.88,3.62-1.51s2.59-1.07,3-1.28.7-.38.87-.49a4.12,4.12,0,0,0,1.16-1.16,3.52,3.52,0,0,0,.56-1.59,1.33,1.33,0,0,1,.08.25,1.93,1.93,0,0,1,0,1c-.09.31-.26.85-.53,1.62a6.61,6.61,0,0,1-1,1.94A6.08,6.08,0,0,1,19,11.3a6.93,6.93,0,0,1-.88.51c-.26.13-.73.32-1.39.6a23,23,0,0,1-2.95.9c-1.29.33-2.37.63-3.25.92A9.27,9.27,0,0,0,8.23,15.3a6.21,6.21,0,0,0-1.78,1.8,6.41,6.41,0,0,0-.93,2.47,6.41,6.41,0,0,0,0,2.46A3.25,3.25,0,0,0,6.59,24a2.22,2.22,0,0,0,1.55.56,3.7,3.7,0,0,0,1.69-.64,6.74,6.74,0,0,0,.89-.66,3.53,3.53,0,0,0,.7-.93,2.2,2.2,0,0,1,.54-.74.4.4,0,0,1,.21-.06A7.26,7.26,0,0,1,11.24,23a5.51,5.51,0,0,1-1.7,1.39,7.14,7.14,0,0,1-.91.29A2.32,2.32,0,0,1,7,24.53a2.17,2.17,0,0,1-1.18-1.08c-.22-.48-.37-.81-.43-1a5.76,5.76,0,0,1-.17-.61A6.23,6.23,0,0,1,5.75,17.95Z"/><path class="cls-1" d="M12.44,25q.22-2.82.51-4.62A15.76,15.76,0,0,1,13.89,17a11.36,11.36,0,0,1,1.94-3.14A13.14,13.14,0,0,0,15,17.62q-.15,3.15-.29,6.26l.13,0q.86-1.85,1.38-2.73a4.05,4.05,0,0,1,1.33-1.4,2.39,2.39,0,0,1,1.23-.38,1.79,1.79,0,0,1,.1.26,3.43,3.43,0,0,1-.23,1.64,10.76,10.76,0,0,0-.39,1.46,1.88,1.88,0,0,0-.51-1,.59.59,0,0,0-.79-.06,4.24,4.24,0,0,0-2,2.42,27.79,27.79,0,0,0-.65,4.25,12.64,12.64,0,0,1-1,4.26A12.48,12.48,0,0,1,11.86,35a6.24,6.24,0,0,1-1.63,1.45A3.8,3.8,0,0,1,8.81,37a1.63,1.63,0,0,1-1.11-.18,1.66,1.66,0,0,1-.6-.56,3.43,3.43,0,0,1-.24-.48,2.39,2.39,0,0,1-.09-.29.73.73,0,0,1,.15-.73,2.94,2.94,0,0,1,.53-.42l.34-.21a3.9,3.9,0,0,0,.55-.39,1.06,1.06,0,0,0,.3-.46l.13-.08c-.07.51-.13,1-.18,1.35a2.82,2.82,0,0,0,0,1,1.35,1.35,0,0,0,.49.7c.28.24.65.22,1.11-.06A3.38,3.38,0,0,0,11.06,35a8.27,8.27,0,0,0,.83-2.46,27.71,27.71,0,0,0,.39-4.09Q12.37,25.85,12.44,25Z"/><polygon class="cls-2" points="0 45.57 26.31 60.76 52.62 45.57 26.31 30.38 0 45.57"/><polygon class="cls-3" points="26.31 0 26.31 30.38 52.62 45.57 52.62 15.19 26.31 0"/></g></g></svg>