<svg xmlns="http://www.w3.org/2000/svg" viewBox="0 0 283.08 81.02"><defs><style>.cls-1{fill:#58595b;}.cls-2{fill:#93765d;}.cls-3{fill:#acb2b2;}</style></defs><title>Logo 1</title><g id="Layer_2" data-name="Layer 2"><g id="Layer_1-2" data-name="Layer 1"><path class="cls-1" d="M7.67,23.93a15.8,15.8,0,0,1,5.83-7A22.42,22.42,0,0,1,16.86,15c1.13-.5,2.74-1.17,4.83-2s3.45-1.42,4-1.71.93-.51,1.15-.66a5.47,5.47,0,0,0,1.54-1.55A4.69,4.69,0,0,0,29.13,7a1.82,1.82,0,0,1,.11.33,2.57,2.57,0,0,1,0,1.28c-.12.41-.35,1.13-.7,2.15a8.78,8.78,0,0,1-1.35,2.58,8.1,8.1,0,0,1-1.89,1.75,9.35,9.35,0,0,1-1.17.68c-.35.17-1,.43-1.85.8a30.66,30.66,0,0,1-3.93,1.2c-1.73.44-3.16.84-4.33,1.22a12.34,12.34,0,0,0-3,1.44,8.31,8.31,0,0,0-2.37,2.4,8.57,8.57,0,0,0-1.23,3.3,8.57,8.57,0,0,0,0,3.27,4.33,4.33,0,0,0,1.41,2.56,3,3,0,0,0,2.07.74,4.92,4.92,0,0,0,2.26-.85,8.85,8.85,0,0,0,1.18-.88,4.78,4.78,0,0,0,.93-1.24,2.92,2.92,0,0,1,.72-1,.51.51,0,0,1,.28-.09,9.64,9.64,0,0,1-1.24,2,6.75,6.75,0,0,1-1.66,1.49,6.63,6.63,0,0,1-.62.36,10.08,10.08,0,0,1-1.21.39,3.1,3.1,0,0,1-2.12-.21,2.9,2.9,0,0,1-1.57-1.45q-.45-1-.58-1.33A8.4,8.4,0,0,1,7,29.12,8.32,8.32,0,0,1,7.67,23.93Z"/><path class="cls-1" d="M16.58,33.37q.29-3.76.68-6.16a21,21,0,0,1,1.26-4.57,15.23,15.23,0,0,1,2.59-4.19,17.55,17.55,0,0,0-1.14,5q-.2,4.2-.38,8.35l.17.06q1.15-2.47,1.84-3.64a5.38,5.38,0,0,1,1.78-1.87A3.15,3.15,0,0,1,25,25.87a2.37,2.37,0,0,1,.13.35,4.58,4.58,0,0,1-.3,2.18,14.31,14.31,0,0,0-.52,2A2.53,2.53,0,0,0,23.65,29,.79.79,0,0,0,22.59,29a5.66,5.66,0,0,0-2.66,3.22,37,37,0,0,0-.87,5.67,16.91,16.91,0,0,1-1.29,5.68,16.61,16.61,0,0,1-1.94,3.1,8.34,8.34,0,0,1-2.18,1.93,5.08,5.08,0,0,1-1.9.71A2.19,2.19,0,0,1,10.27,49a2.25,2.25,0,0,1-.79-.75,4.69,4.69,0,0,1-.31-.64A3.09,3.09,0,0,1,9,47.25a1,1,0,0,1,.2-1,4,4,0,0,1,.71-.56l.46-.28a5.05,5.05,0,0,0,.74-.52,1.41,1.41,0,0,0,.39-.61l.18-.11c-.09.68-.18,1.28-.24,1.8a3.79,3.79,0,0,0,0,1.32,1.8,1.8,0,0,0,.65.93c.37.32.86.29,1.48-.08a4.51,4.51,0,0,0,1.12-1.51,11.06,11.06,0,0,0,1.1-3.28,37.1,37.1,0,0,0,.52-5.46Q16.5,34.46,16.58,33.37Z"/><polygon class="cls-2" points="0 60.76 35.08 81.02 70.16 60.76 35.08 40.51 0 60.76"/><polygon class="cls-3" points="35.08 0 35.08 40.51 70.16 60.76 70.16 20.26 35.08 0"/><path class="cls-1" d="M97.58,58.82h1.32l1.76,5,3.78-5h1.48L101,65l-.67,3.34H99.13L99.8,65Z"/><path class="cls-1" d="M105.91,64.85q.7-3.5,3.9-3.5c2.13,0,3,1.17,2.5,3.5s-1.77,3.5-3.9,3.5S105.46,67.18,105.91,64.85Zm2.7,2.51q2,0,2.47-2.53c.33-1.65-.16-2.48-1.47-2.48s-2.14.83-2.47,2.48S107.3,67.36,108.61,67.36Z"/><path class="cls-1" d="M122.09,61.35l-1.4,7h-1.1l.3-2.16a3.83,3.83,0,0,1-3.28,2.16q-2,0-1.5-2.28l1-4.73h1.23l-1,4.75c-.16.82.16,1.23,1,1.23s1.86-.74,2.79-2.22l.75-3.76Z"/><path class="cls-1" d="M124.06,68.36l1.4-7h1.1l-.31,2.23q1.19-2.23,2.81-2.23l-.22,1.1c-1.06,0-2,.71-2.79,2.15l-.75,3.76Z"/><path class="cls-1" d="M143.35,58.82l-.2,1h-3l-1.7,8.55H137.2l1.71-8.55h-3l.2-1Z"/><path class="cls-1" d="M143.5,64.85q.7-3.5,3.91-3.5t2.5,3.5c-.47,2.33-1.77,3.5-3.9,3.5S143,67.18,143.5,64.85Zm2.71,2.51q2,0,2.48-2.53c.33-1.65-.17-2.48-1.48-2.48s-2.13.83-2.46,2.48S144.9,67.36,146.21,67.36Z"/><path class="cls-1" d="M159.68,61.35l-1.39,7h-1.11l.3-2.16a3.83,3.83,0,0,1-3.28,2.16q-2,0-1.5-2.28l1-4.73h1.23l-.94,4.75q-.25,1.23,1,1.23,1.4,0,2.79-2.22l.76-3.76Z"/><path class="cls-1" d="M166.71,67.49a3.72,3.72,0,0,1-2.45.87c-2,0-2.7-1.19-2.22-3.57s1.8-3.44,4-3.44a7.81,7.81,0,0,1,1.83.2l-.2,1a8,8,0,0,0-1.89-.2c-1.36,0-2.2.81-2.52,2.44s.08,2.57,1.26,2.57a3.61,3.61,0,0,0,2.37-.87Z"/><path class="cls-1" d="M169.46,68.36l1.91-9.54h1.23l-.91,4.56a3.81,3.81,0,0,1,3.25-2c1.31,0,1.8.76,1.5,2.28l-.95,4.73h-1.24l1-4.75c.17-.81-.16-1.22-1-1.22s-1.86.74-2.79,2.22l-.76,3.76Z"/><path class="cls-1" d="M191.85,58.82l-.2,1h-5L186,63h4.77l-.2,1H185.8l-.87,4.34h-1.23l1.91-9.54Z"/><path class="cls-1" d="M193,64.85q.7-3.5,3.9-3.5t2.5,3.5c-.46,2.33-1.76,3.5-3.9,3.5S192.56,67.18,193,64.85Zm2.7,2.51c1.32,0,2.14-.84,2.48-2.53s-.17-2.48-1.48-2.48-2.14.83-2.46,2.48S194.41,67.36,195.72,67.36Z"/><path class="cls-1" d="M201.76,68.36l1.4-7h1.1l-.31,2.23q1.19-2.23,2.81-2.23l-.22,1.1c-1.06,0-2,.71-2.79,2.15L203,68.36Z"/><path class="cls-1" d="M216,58.82l-1.92,9.54h-1.24l1.92-9.54Z"/><path class="cls-1" d="M217.84,68.36l1.4-7h1.1l-.3,2.16a3.85,3.85,0,0,1,3.29-2.16c1.31,0,1.8.76,1.5,2.28l-.95,4.73h-1.24l.95-4.75c.17-.81-.16-1.22-1-1.22s-1.86.74-2.79,2.22l-.75,3.76Z"/><path class="cls-1" d="M228.87,60.21h.78l0,1.13h1.9l-.2,1h-1.7l-.81,4c-.12.66.1,1,.66,1h.85l-.2,1H229c-1.18,0-1.63-.63-1.38-1.89Z"/><path class="cls-1" d="M239.75,63.34c-.25,1.29-1.22,1.93-2.89,1.93h-2.23q-.42,2.08,1.56,2.08a4.13,4.13,0,0,0,2.63-.87l-.2,1a4.14,4.14,0,0,1-2.63.87c-2.14,0-3-1.19-2.5-3.59s1.76-3.42,3.91-3.42Q240.16,61.35,239.75,63.34Zm-4.91.9h2.23c.85,0,1.34-.31,1.46-.92s-.31-1-1.32-1A2.26,2.26,0,0,0,234.84,64.25Z"/><path class="cls-1" d="M241.73,68.36l1.39-7h1.1l-.31,2.23q1.18-2.23,2.82-2.23l-.22,1.1c-1.05,0-2,.71-2.79,2.15L243,68.36Z"/><path class="cls-1" d="M250.6,61.35l-1.4,7H248l1.4-7Zm.5-2.53L250.87,60h-1.23l.23-1.16Z"/><path class="cls-1" d="M253.07,64.85c.47-2.33,1.77-3.5,3.9-3.5s3,1.17,2.5,3.5-1.77,3.5-3.91,3.5S252.61,67.18,253.07,64.85Zm2.7,2.51c1.31,0,2.14-.84,2.47-2.53s-.16-2.48-1.47-2.48-2.13.83-2.46,2.48S254.45,67.36,255.77,67.36Z"/><path class="cls-1" d="M261.81,68.36l1.4-7h1.1L264,63.58q1.19-2.23,2.81-2.23l-.22,1.1c-1.06,0-2,.71-2.79,2.15L263,68.36Z"/><path class="cls-1" d="M101.67,25.55V41.71H100V25.55H98.22V23.92H100V19.1a5.16,5.16,0,0,1,1.54-3.46A4.9,4.9,0,0,1,105,14.26a6.65,6.65,0,0,1,2.13.39l-.5,1.45a3.71,3.71,0,0,0-1.48-.33,3.57,3.57,0,0,0-2.42,1,3.43,3.43,0,0,0-1.07,2.41v4.71h3.63v1.63Z"/><path class="cls-1" d="M131.34,41.71H129.7V38.09a11.26,11.26,0,0,1-1,1.21,9.95,9.95,0,0,1-17-7,9.95,9.95,0,0,1,17-7,11.78,11.78,0,0,1,1,1.21V23.92h1.63Zm-1.63-7.82V30.66a8.23,8.23,0,1,0-13.89,7.42,8.25,8.25,0,0,0,13.89-4.19Z"/><path class="cls-1" d="M140.58,12.72h1.63V26.42a9.88,9.88,0,0,1,1-1.19,9.93,9.93,0,0,1,17,7,9.93,9.93,0,0,1-17,7,9.71,9.71,0,0,1-1-1.19v3.6h-1.63Zm1.63,17.84V34a8.23,8.23,0,1,0,13.87-7.52,8.24,8.24,0,0,0-13.87,4.11Z"/><path class="cls-1" d="M176.06,42a7.19,7.19,0,0,1-5.31-2,7,7,0,0,1-2-5V23.92h1.63V34.86A5.21,5.21,0,0,0,172,38.72a5.52,5.52,0,0,0,4,1.61,5.38,5.38,0,0,0,3.89-1.6,5.22,5.22,0,0,0,1.64-3.87V23.92h1.63V35a6.85,6.85,0,0,1-7.14,7Z"/><path class="cls-1" d="M194,12.72v29h-1.64v-29Z"/><path class="cls-1" d="M212,22.31a9.94,9.94,0,0,1,9.94,10,9.94,9.94,0,1,1-17-7A9.61,9.61,0,0,1,212,22.31Zm-5.81,4.15a8.21,8.21,0,0,0,0,11.62,8.22,8.22,0,0,0,14-5.81,8.23,8.23,0,0,0-14-5.82Z"/><path class="cls-1" d="M237.31,42a7.16,7.16,0,0,1-5.3-2,6.91,6.91,0,0,1-2-5V23.92h1.63V34.86a5.16,5.16,0,0,0,1.65,3.86,5.5,5.5,0,0,0,4,1.61,5.35,5.35,0,0,0,3.88-1.6,5.19,5.19,0,0,0,1.64-3.87V23.92h1.64V35a6.86,6.86,0,0,1-7.14,7Z"/><path class="cls-1" d="M263,25.55h-9.19V23.92h12l-9.2,16.16h9.89v1.63H253.86Z"/><rect class="cls-1" x="98.22" y="50.31" width="168.32" height="1.01"/><path class="cls-1" d="M274.38,12.8v.85H272v6.27h-1V13.66h-2.39V12.8Z"/><path class="cls-1" d="M276.24,12.8h1.38l2,6,2-6h1.37v7.12h-.92v-4.2c0-.15,0-.39,0-.72s0-.7,0-1.08l-2,6h-1l-2-6v.22c0,.17,0,.44,0,.8s0,.62,0,.79v4.2h-.92Z"/></g></g></svg>