<?xml version="1.0" encoding="utf-8"?>
<!-- Generator: Adobe Illustrator 15.0.0, SVG Export Plug-In  -->
<!DOCTYPE svg PUBLIC "-//W3C//DTD SVG 1.1//EN" "http://www.w3.org/Graphics/SVG/1.1/DTD/svg11.dtd" [
	<!ENTITY ns_flows "http://ns.adobe.com/Flows/1.0/">
]>
<svg version="1.1"
	 xmlns="http://www.w3.org/2000/svg" xmlns:xlink="http://www.w3.org/1999/xlink" xmlns:a="http://ns.adobe.com/AdobeSVGViewerExtensions/3.0/"
	 x="0px" y="0px" width="207px" height="46px" viewBox="0 -0.583 207 46" enable-background="new 0 -0.583 207 46"
	 xml:space="preserve">
<defs>
</defs>
<path fill="#C3996B" d="M150.264,1.088c0-0.601-0.486-1.088-1.088-1.088c-0.601,0-1.089,0.487-1.089,1.088v8.951
	c0,0.239,0.094,0.447,0.224,0.627h1.73c0.131-0.18,0.223-0.388,0.223-0.627V1.088z"/>
<path fill="none" d="M115.466,43.554c-0.201,0.351-0.567,0.546-0.943,0.546c-0.185,0-0.37-0.047-0.542-0.145l-7.762-4.458
	c-0.521-0.3-0.7-0.963-0.401-1.485c0.3-0.522,0.963-0.699,1.485-0.402l7.762,4.458C115.586,42.368,115.766,43.032,115.466,43.554z
	 M146.458,16.669l-7.731,4.513c-0.172,0.101-0.361,0.149-0.547,0.149c-0.374,0-0.738-0.193-0.94-0.54
	c-0.304-0.519-0.128-1.185,0.391-1.488l7.729-4.514c0.521-0.303,1.188-0.128,1.49,0.391C147.15,15.7,146.976,16.366,146.458,16.669z
	 M161.164,20.704c-0.201,0.351-0.567,0.546-0.945,0.546c-0.184,0-0.369-0.047-0.54-0.145l-7.763-4.456
	c-0.522-0.299-0.7-0.964-0.402-1.485c0.299-0.521,0.964-0.701,1.485-0.402l7.763,4.456
	C161.284,19.517,161.463,20.183,161.164,20.704z M192.153,39.518l-7.729,4.513c-0.173,0.101-0.361,0.148-0.548,0.148
	c-0.374,0-0.738-0.193-0.94-0.54c-0.304-0.518-0.127-1.185,0.392-1.487l7.729-4.513c0.519-0.302,1.186-0.127,1.488,0.391
	S192.672,39.215,192.153,39.518z M195.96,32.887c0,0.602-0.486,1.088-1.088,1.088s-1.088-0.486-1.088-1.088v-8.951
	c0-0.602,0.486-1.088,1.088-1.088s1.088,0.487,1.088,1.088V32.887z M206.859,43.554c-0.2,0.351-0.567,0.546-0.943,0.546
	c-0.185,0-0.37-0.047-0.542-0.145l-7.762-4.458c-0.521-0.3-0.7-0.963-0.401-1.485s0.964-0.699,1.485-0.402l7.762,4.458
	C206.979,42.368,207.159,43.032,206.859,43.554z"/>
<path fill="#C3996B" d="M149.176,11.126c0.363,0,0.668-0.189,0.865-0.461h-1.73C148.508,10.938,148.814,11.126,149.176,11.126z"/>
<path fill="#C3996B" d="M160.762,19.219l-7.763-4.456c-0.521-0.299-1.187-0.119-1.485,0.402c-0.298,0.521-0.12,1.187,0.402,1.485
	l7.763,4.456c0.171,0.098,0.356,0.145,0.54,0.145c0.378,0,0.744-0.196,0.945-0.546C161.463,20.183,161.284,19.517,160.762,19.219z"
	/>
<path fill="#C3996B" d="M145.358,14.79l-7.729,4.514c-0.519,0.303-0.694,0.969-0.391,1.488c0.202,0.346,0.566,0.54,0.94,0.54
	c0.186,0,0.375-0.048,0.547-0.149l7.731-4.513c0.518-0.303,0.692-0.969,0.391-1.488C146.546,14.662,145.88,14.487,145.358,14.79z"/>
<path fill="#C3996B" d="M104.566,32.887v-8.951c0-0.593-0.476-1.07-1.064-1.084v11.118C104.091,33.957,104.566,33.48,104.566,32.887
	z"/>
<path fill="#C3996B" d="M115.064,42.068l-7.762-4.458c-0.522-0.297-1.186-0.12-1.485,0.402c-0.299,0.522-0.12,1.186,0.401,1.485
	l7.762,4.458c0.172,0.098,0.357,0.145,0.542,0.145c0.376,0,0.742-0.196,0.943-0.546C115.766,43.032,115.586,42.368,115.064,42.068z"
	/>
<path fill="#C3996B" d="M194.872,22.848c-0.602,0-1.088,0.487-1.088,1.088v8.951c0,0.602,0.486,1.088,1.088,1.088
	s1.088-0.486,1.088-1.088v-8.951C195.96,23.335,195.474,22.848,194.872,22.848z"/>
<path fill="#C3996B" d="M206.458,42.068l-7.762-4.458c-0.521-0.297-1.187-0.12-1.485,0.402s-0.12,1.186,0.401,1.485l7.762,4.458
	c0.172,0.098,0.357,0.145,0.542,0.145c0.376,0,0.743-0.196,0.943-0.546C207.159,43.032,206.979,42.368,206.458,42.068z"/>
<path fill="#C3996B" d="M191.056,37.64l-7.729,4.513c-0.519,0.303-0.695,0.969-0.392,1.487c0.202,0.346,0.566,0.54,0.94,0.54
	c0.187,0,0.375-0.047,0.548-0.148l7.729-4.513c0.519-0.303,0.693-0.969,0.391-1.487S191.574,37.338,191.056,37.64z"/>
<path fill="#C3996B" d="M58.87,1.088C58.87,0.487,58.384,0,57.782,0c-0.601,0-1.088,0.487-1.088,1.088v8.951
	c0,0.239,0.093,0.447,0.223,0.627h1.73c0.131-0.18,0.223-0.388,0.223-0.627V1.088z"/>
<path fill="none" d="M9.366,39.518l-7.729,4.513c-0.173,0.101-0.361,0.148-0.548,0.148c-0.374,0-0.738-0.193-0.94-0.54
	c-0.304-0.518-0.127-1.185,0.392-1.487l7.729-4.513c0.519-0.302,1.186-0.127,1.488,0.391S9.885,39.215,9.366,39.518z M13.173,32.887
	c0,0.602-0.486,1.088-1.088,1.088s-1.088-0.486-1.088-1.088v-8.951c0-0.602,0.486-1.088,1.088-1.088s1.088,0.487,1.088,1.088V32.887
	z M24.072,43.554c-0.2,0.351-0.567,0.546-0.943,0.546c-0.185,0-0.37-0.047-0.542-0.145l-7.762-4.458
	c-0.521-0.3-0.7-0.963-0.401-1.485s0.964-0.699,1.485-0.402l7.762,4.458C24.192,42.368,24.372,43.032,24.072,43.554z M55.064,16.669
	l-7.731,4.513c-0.172,0.101-0.361,0.149-0.547,0.149c-0.374,0-0.738-0.193-0.94-0.54c-0.304-0.519-0.128-1.185,0.391-1.488
	l7.729-4.514c0.52-0.303,1.186-0.128,1.489,0.391C55.757,15.7,55.583,16.366,55.064,16.669z M69.771,20.704
	c-0.201,0.351-0.567,0.546-0.944,0.546c-0.185,0-0.37-0.047-0.541-0.145l-7.763-4.456c-0.521-0.299-0.7-0.964-0.402-1.485
	c0.299-0.521,0.964-0.701,1.486-0.402l7.763,4.456C69.891,19.517,70.069,20.183,69.771,20.704z M100.76,39.518l-7.729,4.513
	c-0.173,0.101-0.361,0.148-0.548,0.148c-0.374,0-0.738-0.193-0.94-0.54c-0.304-0.518-0.127-1.185,0.392-1.487l7.729-4.513
	c0.521-0.302,1.186-0.127,1.488,0.391C101.454,38.549,101.278,39.215,100.76,39.518z"/>
<path fill="#C3996B" d="M57.782,11.126c0.363,0,0.668-0.189,0.865-0.461h-1.73C57.114,10.938,57.421,11.126,57.782,11.126z"/>
<path fill="#C3996B" d="M69.369,19.219l-7.763-4.456c-0.522-0.299-1.188-0.119-1.486,0.402c-0.298,0.521-0.119,1.187,0.402,1.485
	l7.763,4.456c0.171,0.098,0.356,0.145,0.541,0.145c0.377,0,0.743-0.196,0.944-0.546C70.069,20.183,69.891,19.517,69.369,19.219z"/>
<path fill="#C3996B" d="M53.966,14.79l-7.729,4.514c-0.519,0.303-0.694,0.969-0.391,1.488c0.202,0.346,0.566,0.54,0.94,0.54
	c0.186,0,0.375-0.048,0.547-0.149l7.731-4.513c0.519-0.303,0.692-0.969,0.391-1.488C55.151,14.662,54.485,14.487,53.966,14.79z"/>
<path fill="#C3996B" d="M12.085,22.848c-0.602,0-1.088,0.487-1.088,1.088v8.951c0,0.602,0.486,1.088,1.088,1.088
	s1.088-0.486,1.088-1.088v-8.951C13.173,23.335,12.687,22.848,12.085,22.848z"/>
<path fill="#C3996B" d="M23.671,42.068l-7.762-4.458c-0.521-0.297-1.187-0.12-1.485,0.402s-0.12,1.186,0.401,1.485l7.762,4.458
	c0.172,0.098,0.357,0.145,0.542,0.145c0.376,0,0.743-0.196,0.943-0.546C24.372,43.032,24.192,42.368,23.671,42.068z"/>
<path fill="#C3996B" d="M8.269,37.64L0.54,42.152c-0.519,0.303-0.695,0.969-0.392,1.487c0.202,0.346,0.566,0.54,0.94,0.54
	c0.187,0,0.375-0.047,0.548-0.148l7.729-4.513c0.519-0.303,0.693-0.969,0.391-1.487S8.787,37.338,8.269,37.64z"/>
<path fill="#C3996B" d="M102.391,23.937v8.951c0,0.602,0.487,1.088,1.088,1.088c0.009,0,0.016-0.004,0.023-0.004V22.853
	c-0.008,0-0.015-0.004-0.023-0.004C102.878,22.848,102.391,23.335,102.391,23.937z"/>
<path fill="#C3996B" d="M99.662,37.64l-7.729,4.513c-0.519,0.303-0.695,0.969-0.392,1.487c0.202,0.346,0.566,0.54,0.94,0.54
	c0.187,0,0.375-0.047,0.548-0.148l7.729-4.513c0.519-0.303,0.694-0.969,0.391-1.487C100.848,37.512,100.183,37.338,99.662,37.64z"/>
</svg>
